<svg width="100%" viewBox="0 0 680 300" xmlns="http://www.w3.org/2000/svg" role="img">
  <title>4bit는 저장 형식일 뿐, 계산할 땐 쓰는 한 칸만 16bit로 편다</title>
  <desc>모델 전체(70억 개 가중치)는 4bit로 압축돼 GPU 메모리에 상주한다(약 3.5GB). 곱셈할 차례가 된 가중치 한 칸만 잠깐 16bit로 펴서 계산에 쓰고, 쓰고 나면 버린다. 모델 전체를 한꺼번에 16bit로 펴지 않으므로, 메모리에 상주하는 모델은 4bit 크기 그대로다.</desc>

  <defs>
    <pattern id="dq-hatch" patternUnits="userSpaceOnUse" width="6" height="6" patternTransform="rotate(45)">
      <line x1="0" y1="0" x2="0" y2="6" stroke="#000" stroke-width="0.6" opacity="0.22"/>
    </pattern>
    <marker id="dq-arr" viewBox="0 0 10 10" refX="8" refY="5" markerWidth="8" markerHeight="8" orient="auto-start-reverse">
      <path d="M2 1L8 5L2 9" fill="none" stroke="context-stroke" stroke-width="1.5" stroke-linecap="round" stroke-linejoin="round"/>
    </marker>
  </defs>

  <text x="340" y="28" text-anchor="middle" font-family="-apple-system, system-ui, sans-serif" font-size="14" font-weight="500" fill="#000">4bit는 저장 형식일 뿐 — 계산할 땐 쓰는 한 칸만 16bit로 편다</text>

  <!-- 왼쪽: GPU 메모리 (모델 전체가 4bit로 상주) -->
  <text x="163" y="58" text-anchor="middle" font-family="-apple-system, system-ui, sans-serif" font-size="11.5" font-weight="600" fill="#000">GPU 메모리</text>
  <rect x="48" y="68" width="230" height="150" rx="5" fill="#fff" stroke="#000" stroke-width="1.6"/>

  <!-- 4bit 가중치 칸들 (동결·압축) -->
  <g stroke="#000" stroke-width="1.3">
    <rect x="72"  y="84"  width="30" height="20" rx="2.5" fill="url(#dq-hatch)"/>
    <rect x="110" y="84"  width="30" height="20" rx="2.5" fill="url(#dq-hatch)"/>
    <rect x="148" y="84"  width="30" height="20" rx="2.5" fill="url(#dq-hatch)"/>
    <rect x="186" y="84"  width="30" height="20" rx="2.5" fill="url(#dq-hatch)"/>
    <rect x="72"  y="112" width="30" height="20" rx="2.5" fill="url(#dq-hatch)"/>
    <rect x="110" y="112" width="30" height="20" rx="2.5" fill="url(#dq-hatch)"/>
    <rect x="148" y="112" width="30" height="20" rx="2.5" fill="url(#dq-hatch)"/>
    <rect x="186" y="112" width="30" height="20" rx="2.5" fill="url(#dq-hatch)"/>
    <rect x="224" y="112" width="30" height="20" rx="2.5" fill="url(#dq-hatch)"/>
    <rect x="72"  y="140" width="30" height="20" rx="2.5" fill="url(#dq-hatch)"/>
    <rect x="110" y="140" width="30" height="20" rx="2.5" fill="url(#dq-hatch)"/>
    <rect x="148" y="140" width="30" height="20" rx="2.5" fill="url(#dq-hatch)"/>
    <rect x="186" y="140" width="30" height="20" rx="2.5" fill="url(#dq-hatch)"/>
    <rect x="224" y="140" width="30" height="20" rx="2.5" fill="url(#dq-hatch)"/>
    <rect x="72"  y="168" width="30" height="20" rx="2.5" fill="url(#dq-hatch)"/>
    <rect x="110" y="168" width="30" height="20" rx="2.5" fill="url(#dq-hatch)"/>
    <rect x="148" y="168" width="30" height="20" rx="2.5" fill="url(#dq-hatch)"/>
    <rect x="186" y="168" width="30" height="20" rx="2.5" fill="url(#dq-hatch)"/>
    <rect x="224" y="168" width="30" height="20" rx="2.5" fill="url(#dq-hatch)"/>
  </g>
  <!-- 지금 쓰는 한 칸 -->
  <rect x="224" y="84" width="30" height="20" rx="2.5" fill="#000" fill-opacity="0.12" stroke="#000" stroke-width="2.2"/>

  <text x="163" y="206" text-anchor="middle" font-family="-apple-system, system-ui, sans-serif" font-size="10.5" fill="#000">70억 개 가중치 · 4bit로 상주</text>
  <text x="163" y="238" text-anchor="middle" font-family="-apple-system, system-ui, sans-serif" font-size="15" font-weight="700" fill="#000">3.5GB 그대로</text>

  <!-- 가운데: 펴기 화살표 -->
  <text x="362" y="82" text-anchor="middle" font-family="-apple-system, system-ui, sans-serif" font-size="10.5" fill="#000" opacity="0.8">쓸 차례엔 그 칸만</text>
  <path d="M 260 94 L 462 94" fill="none" stroke="#000" stroke-width="1.5" marker-end="url(#dq-arr)"/>
  <text x="362" y="110" text-anchor="middle" font-family="-apple-system, system-ui, sans-serif" font-size="11" font-weight="600" fill="#000">잠깐 16bit로</text>

  <!-- 오른쪽: 펴서 곱하고 버림 -->
  <rect x="470" y="72" width="152" height="50" rx="4" fill="#fff" stroke="#000" stroke-width="1.6"/>
  <text x="546" y="92"  text-anchor="middle" font-family="-apple-system, system-ui, sans-serif" font-size="11.5" font-weight="600" fill="#000">16bit로 펴서</text>
  <text x="546" y="108" text-anchor="middle" font-family="ui-monospace, Menlo, monospace" font-size="9.5" fill="#000" opacity="0.6">곱셈에 사용</text>

  <!-- 쓰고 버림 → 메모리로 되돌아가는 점선 -->
  <path d="M 512 124 C 430 196, 350 212, 282 186" fill="none" stroke="#000" stroke-width="1.3" stroke-dasharray="4 4" opacity="0.7" marker-end="url(#dq-arr)"/>
  <text x="402" y="214" text-anchor="middle" font-family="-apple-system, system-ui, sans-serif" font-size="10" fill="#000" opacity="0.7">곱하고 나면 버림 — 다음 칸도 똑같이</text>

  <!-- 캡션 -->
  <line x1="40" y1="256" x2="640" y2="256" stroke="#000" stroke-width="0.5" stroke-dasharray="3 4" opacity="0.5"/>
  <text x="340" y="278" text-anchor="middle" font-family="-apple-system, system-ui, sans-serif" font-size="11.5" fill="#000">모델 전체를 한꺼번에 펴지 않으니, 메모리에 상주하는 모델은 4bit 크기 그대로다</text>
</svg>
