<svg width="100%" viewBox="0 0 680 226" xmlns="http://www.w3.org/2000/svg" role="img">
  <title>평가 신뢰성 — 측정 도구부터 고치기</title>
  <desc>고치기 전에는 같은 논문·같은 인덱스로 채점해도 채점 LLM의 비결정성과 언어 불일치 때문에 점수가 83퍼센트와 50퍼센트로 흔들렸다. seed와 온도를 고정하고 의미로 채점하며 키워드 언어를 맞추자 점수가 안정됐다.</desc>

  <defs>
    <style>
      text { font-family: -apple-system, system-ui, sans-serif; fill: #171717; }
      .box { fill: #fafaf9; stroke: #d8d8d4; stroke-width: 1.5; }
      .accent { fill: #fff3ec; stroke: #f26522; stroke-width: 1.6; }
      .t { font-size: 12px; font-weight: 600; text-anchor: middle; dominant-baseline: central; }
      .hdr { font-size: 14px; font-weight: 600; text-anchor: middle; }
      .cap { font-size: 11.5px; font-weight: 600; fill: #8a8a85; text-anchor: middle; }
      .sub { font-size: 10.5px; fill: #8a8a85; text-anchor: middle; }
      .flow { stroke: #171717; stroke-width: 1.6; fill: none; }
      .divide { stroke: #e5e5e2; stroke-width: 1.4; stroke-dasharray: 5 4; }
    </style>
    <marker id="ah" markerWidth="8" markerHeight="8" refX="5.5" refY="3" orient="auto">
      <path d="M0,0 L6,3 L0,6 Z" fill="#171717"/>
    </marker>
  </defs>

  <text x="340" y="22" class="hdr">평가 신뢰성 — 측정 도구부터 고치기</text>
  <line class="divide" x1="340" y1="44" x2="340" y2="212"/>

  <!-- 고치기 전 -->
  <text x="166" y="58" class="cap">고치기 전</text>
  <rect class="box" x="24" y="78" width="120" height="40" rx="9"/>
  <text class="t" x="84" y="98">같은 논문·인덱스</text>
  <path class="flow" d="M144,98 H176" marker-end="url(#ah)"/>
  <rect class="box" x="176" y="78" width="70" height="40" rx="9"/>
  <text class="t" x="211" y="98">채점</text>
  <path class="flow" d="M246,90 L286,72" marker-end="url(#ah)"/>
  <path class="flow" d="M246,106 L286,124" marker-end="url(#ah)"/>
  <rect class="accent" x="286" y="56" width="48" height="30" rx="8"/>
  <text class="t" x="310" y="71" style="fill:#f26522;">83%</text>
  <rect class="accent" x="286" y="110" width="48" height="30" rx="8"/>
  <text class="t" x="310" y="125" style="fill:#f26522;">50%</text>
  <text x="166" y="150" class="sub" style="font-size:11px;">같은 답인데 채점 결과가 흔들림</text>
  <text x="166" y="167" class="sub">비결정성 · 답(한국어)과 키워드(영어) 불일치</text>

  <!-- 고친 후 -->
  <text x="512" y="58" class="cap">고친 후</text>
  <rect class="box" x="366" y="72" width="252" height="52" rx="9"/>
  <text x="384" y="92" style="font-size:11.5px;font-weight:600;">① temperature 0 · seed 고정</text>
  <text x="384" y="112" style="font-size:11.5px;font-weight:600;">② 의미로 채점 · 키워드 언어 맞춤</text>
  <path class="flow" d="M492,124 V150" marker-end="url(#ah)"/>
  <rect class="accent" x="432" y="150" width="120" height="34" rx="9"/>
  <text class="t" x="492" y="167" style="fill:#f26522;">점수 안정</text>
</svg>
