<svg width="100%" viewBox="0 0 680 214" xmlns="http://www.w3.org/2000/svg" role="img">
  <title>표 읽기 — 텍스트 변환 vs 구조 보존</title>
  <desc>표를 그냥 텍스트로 변환하면 행과 열 경계가 사라져 어느 값이 어느 칸인지 흐려진다. 마크다운 표로 바꾸면 행과 열이 글자로 남아 값의 위치가 분명해진다.</desc>

  <defs>
    <style>
      text { font-family: -apple-system, system-ui, sans-serif; fill: #171717; }
      .box { fill: #fafaf9; stroke: #d8d8d4; stroke-width: 1.5; }
      .colh { font-size: 11.5px; font-weight: 600; fill: #8a8a85; text-anchor: middle; }
      .hdr { font-size: 14px; font-weight: 600; text-anchor: middle; }
      .sub { font-size: 10.5px; fill: #8a8a85; text-anchor: middle; }
      .mono { font-family: ui-monospace, Menlo, monospace; font-size: 11.5px; fill: #6b6b66; }
      .num { fill: #f26522; font-weight: 600; }
      .grid { stroke: #d8d8d4; stroke-width: 1.3; }
      .cell { font-size: 10.5px; text-anchor: middle; dominant-baseline: central; }
      .divide { stroke: #e5e5e2; stroke-width: 1.4; stroke-dasharray: 5 4; }
    </style>
  </defs>

  <text x="340" y="22" class="hdr">표 읽기 — 텍스트 변환 vs 구조 보존</text>
  <line class="divide" x1="340" y1="42" x2="340" y2="200"/>

  <!-- 왼쪽: 그냥 텍스트 -->
  <text x="166" y="58" class="colh">그냥 텍스트로 변환</text>
  <rect class="box" x="34" y="72" width="272" height="66" rx="9"/>
  <text class="mono" x="50" y="98">Transformer(base) <tspan class="num">27.3 38.1</tspan></text>
  <text class="mono" x="50" y="120">Transformer(big) <tspan class="num">28.4 41.8</tspan></text>
  <text x="166" y="164" class="sub">행·열 경계가 사라져 어느 값이 어느 칸인지 흐려진다</text>

  <!-- 오른쪽: 구조 보존 -->
  <text x="512" y="58" class="colh">구조 보존 (마크다운 표)</text>
  <rect x="386" y="72" width="252" height="78" rx="4" fill="#fafaf9" stroke="#d8d8d4" stroke-width="1.4"/>
  <rect x="386" y="72" width="252" height="26" rx="4" fill="#fff3ec"/>
  <line class="grid" x1="386" y1="98"  x2="638" y2="98"/>
  <line class="grid" x1="386" y1="124" x2="638" y2="124"/>
  <line class="grid" x1="510" y1="72"  x2="510" y2="150"/>
  <line class="grid" x1="574" y1="72"  x2="574" y2="150"/>
  <text class="cell" x="448" y="85" style="font-weight:600;fill:#f26522;">Model</text>
  <text class="cell" x="542" y="85" style="font-weight:600;fill:#f26522;">EN-DE</text>
  <text class="cell" x="606" y="85" style="font-weight:600;fill:#f26522;">EN-FR</text>
  <text class="cell" x="448" y="111">Transformer(base)</text>
  <text class="cell" x="542" y="111">27.3</text>
  <text class="cell" x="606" y="111">38.1</text>
  <text class="cell" x="448" y="137">Transformer(big)</text>
  <text class="cell" x="542" y="137">28.4</text>
  <text class="cell" x="606" y="137">41.8</text>
  <text x="512" y="164" class="sub">행과 열이 남아 어느 값이 어느 칸인지 분명하다</text>
</svg>
