<svg width="100%" viewBox="0 0 680 300" xmlns="http://www.w3.org/2000/svg" role="img">
  <title>CLIP zero-shot 분류</title>
  <desc>사진과 후보 문장을 각각 인코더로 같은 벡터 공간에 넣고, 사진에 가장 가까운 문장을 고른다. 분류기를 따로 학습하지 않고도 후보 문장만 바꾸면 분류할 수 있다.</desc>

  <defs>
    <style>
      text { font-family: -apple-system, system-ui, sans-serif; fill: #171717; }
      .box { fill: #fff; stroke: #171717; stroke-width: 1.7; }
      .space { fill: #fafaf9; stroke: #ececea; stroke-width: 1.5; }
      .lbl { font-size: 12px; font-weight: 600; text-anchor: middle; }
      .dotl { font-size: 11px; font-weight: 600; text-anchor: middle; }
      .hdr { font-size: 14px; font-weight: 600; text-anchor: middle; }
      .note { font-size: 10px; fill: #8a8a85; text-anchor: middle; }
      .cap { font-size: 11.5px; fill: #8a8a85; text-anchor: middle; }
      .win { font-size: 10.5px; font-weight: 700; fill: #f26522; text-anchor: middle; }
    </style>
    <marker id="cz-arr" viewBox="0 0 10 10" refX="8" refY="5" markerWidth="7" markerHeight="7" orient="auto-start-reverse">
      <path d="M2 1L8 5L2 9" fill="none" stroke="context-stroke" stroke-width="1.5" stroke-linecap="round" stroke-linejoin="round"/>
    </marker>
  </defs>

  <text x="340" y="28" class="hdr">학습 없이 분류 — zero-shot</text>

  <!-- 입력 + 인코더 -->
  <rect class="box" x="20" y="72" width="84" height="42" rx="6"/>
  <text x="62" y="93" class="lbl" dominant-baseline="central">사진</text>
  <path d="M 104 93 L 124 93" fill="none" stroke="#171717" stroke-width="1.5" stroke-linecap="round" marker-end="url(#cz-arr)"/>
  <rect class="box" x="124" y="66" width="104" height="54" rx="6"/>
  <text x="176" y="93" class="lbl" dominant-baseline="central">이미지 인코더</text>

  <rect class="box" x="20" y="198" width="84" height="42" rx="6"/>
  <text x="62" y="219" class="lbl" dominant-baseline="central">후보 문장</text>
  <path d="M 104 219 L 124 219" fill="none" stroke="#171717" stroke-width="1.5" stroke-linecap="round" marker-end="url(#cz-arr)"/>
  <rect class="box" x="124" y="192" width="104" height="54" rx="6"/>
  <text x="176" y="219" class="lbl" dominant-baseline="central">텍스트 인코더</text>

  <!-- 공유 벡터 공간 -->
  <rect class="space" x="300" y="64" width="360" height="184" rx="10"/>
  <text x="480" y="84" class="note">공유 벡터 공간</text>

  <path d="M 228 93 C 262 93 268 120 298 124" fill="none" stroke="#171717" stroke-width="1.4" stroke-linecap="round" marker-end="url(#cz-arr)"/>
  <path d="M 228 219 C 262 219 268 192 298 188" fill="none" stroke="#171717" stroke-width="1.4" stroke-linecap="round" marker-end="url(#cz-arr)"/>

  <!-- 가까운 쌍 -->
  <line x1="430" y1="150" x2="486" y2="132" stroke="#f26522" stroke-width="1.3" stroke-dasharray="4 3"/>
  <circle cx="430" cy="150" r="7" fill="#f26522"/>
  <text x="430" y="170" class="dotl">사진</text>
  <circle cx="486" cy="132" r="5" fill="#171717"/>
  <text x="500" y="120" class="dotl" text-anchor="start">"강아지"</text>
  <text x="455" y="108" class="win">가장 가까움 → 정답</text>

  <!-- 먼 쌍 -->
  <circle cx="600" cy="216" r="5" fill="#8a8a85"/>
  <text x="600" y="234" class="dotl" fill="#8a8a85">"고양이"</text>

  <text x="340" y="288" class="cap">사진을 같은 공간에 넣고 가장 가까운 후보 문장을 고른다 — 분류기를 따로 학습하지 않는다</text>
</svg>
