<svg width="100%" viewBox="0 0 680 330" xmlns="http://www.w3.org/2000/svg" role="img">
  <title>Three Directions of Multimodal AI</title>
  <desc>Multimodal AI splits into three directions depending on which side — input or output — handles multiple modalities: multimodal input to text output (understanding), text input to multimodal output (generation), or multimodal-to-multimodal (omni).</desc>

  <defs>
    <style>
      text { font-family: -apple-system, system-ui, sans-serif; fill: #171717; }
      .box { fill: #fff; stroke: #171717; stroke-width: 1.7; }
      .mdl { fill: #fff8f4; stroke: #f26522; stroke-width: 2; }
      .bt { font-size: 11px; font-weight: 600; text-anchor: middle; }
      .tag { font-size: 12px; font-weight: 700; text-anchor: start; }
      .ex { font-size: 9px; fill: #8a8a85; text-anchor: start; }
      .hdr { font-size: 14px; font-weight: 600; text-anchor: middle; }
      .cap { font-size: 11.5px; fill: #8a8a85; text-anchor: middle; }
    </style>
    <marker id="dr-arr" viewBox="0 0 10 10" refX="8" refY="5" markerWidth="7" markerHeight="7" orient="auto-start-reverse">
      <path d="M2 1L8 5L2 9" fill="none" stroke="context-stroke" stroke-width="1.5" stroke-linecap="round" stroke-linejoin="round"/>
    </marker>
  </defs>

  <text x="340" y="24" class="hdr">Three Directions of Multimodal AI</text>

  <!-- ① Multimodal → Text -->
  <text x="110" y="52" class="tag">① Multimodal → Text · Understanding</text>
  <rect class="box" x="110" y="60" width="150" height="40" rx="6"/>
  <text x="185" y="80" class="bt" dominant-baseline="central">Image · Audio · Video</text>
  <path d="M 262 80 L 298 80" fill="none" stroke="#171717" stroke-width="1.5" stroke-linecap="round" marker-end="url(#dr-arr)"/>
  <rect class="mdl" x="300" y="60" width="80" height="40" rx="6"/>
  <text x="340" y="80" class="bt" dominant-baseline="central">Model</text>
  <path d="M 382 80 L 408 80" fill="none" stroke="#171717" stroke-width="1.5" stroke-linecap="round" marker-end="url(#dr-arr)"/>
  <rect class="box" x="410" y="60" width="150" height="40" rx="6"/>
  <text x="485" y="80" class="bt" dominant-baseline="central">Text</text>
  <text x="568" y="80" class="ex" dominant-baseline="central">VLM · Whisper</text>

  <!-- ② Text → Multimodal -->
  <text x="110" y="140" class="tag">② Text → Multimodal · Generation</text>
  <rect class="box" x="110" y="148" width="150" height="40" rx="6"/>
  <text x="185" y="168" class="bt" dominant-baseline="central">Text</text>
  <path d="M 262 168 L 298 168" fill="none" stroke="#171717" stroke-width="1.5" stroke-linecap="round" marker-end="url(#dr-arr)"/>
  <rect class="mdl" x="300" y="148" width="80" height="40" rx="6"/>
  <text x="340" y="168" class="bt" dominant-baseline="central">Model</text>
  <path d="M 382 168 L 408 168" fill="none" stroke="#171717" stroke-width="1.5" stroke-linecap="round" marker-end="url(#dr-arr)"/>
  <rect class="box" x="410" y="148" width="150" height="40" rx="6"/>
  <text x="485" y="168" class="bt" dominant-baseline="central">Image · Audio · Video</text>
  <text x="568" y="168" class="ex" dominant-baseline="central">image generation</text>

  <!-- ③ Multimodal → Multimodal -->
  <text x="110" y="228" class="tag">③ Multimodal → Multimodal · Omni</text>
  <rect class="box" x="110" y="236" width="150" height="40" rx="6"/>
  <text x="185" y="256" class="bt" dominant-baseline="central">Image · Audio · Video</text>
  <path d="M 262 256 L 298 256" fill="none" stroke="#171717" stroke-width="1.5" stroke-linecap="round" marker-end="url(#dr-arr)"/>
  <rect class="mdl" x="300" y="236" width="80" height="40" rx="6"/>
  <text x="340" y="256" class="bt" dominant-baseline="central">Model</text>
  <path d="M 382 256 L 408 256" fill="none" stroke="#171717" stroke-width="1.5" stroke-linecap="round" marker-end="url(#dr-arr)"/>
  <rect class="box" x="410" y="236" width="150" height="40" rx="6"/>
  <text x="485" y="256" class="bt" dominant-baseline="central">Image · Audio · Video</text>
  <text x="568" y="256" class="ex" dominant-baseline="central">GPT-4o</text>

  <text x="340" y="312" class="cap">Which side (input or output) is multimodal determines the direction — this series covers all three</text>
</svg>
