<svg width="100%" viewBox="0 0 680 210" xmlns="http://www.w3.org/2000/svg" role="img">
  <title>Two Tasks of the Projector — Dimension Alignment and Token Reduction</title>
  <desc>The encoder outputs many narrow (1024-dim) patch vectors; the projector aligns them to the LLM dimension (4096) and reduces their count, turning them into fewer, wider tokens before feeding them to the LLM.</desc>

  <defs>
    <style>
      text { font-family: -apple-system, system-ui, sans-serif; fill: #171717; }
      .acc { fill: #fff8f4; stroke: #f26522; stroke-width: 2.2; }
      .barL { fill: #e8e8e5; stroke: #c4c4c0; stroke-width: 1; }
      .barR { fill: #fff3ea; stroke: #f26522; stroke-width: 1.4; }
      .lbl { font-size: 12px; font-weight: 600; text-anchor: middle; }
      .sub { font-size: 10px; fill: #8a8a85; text-anchor: middle; }
      .pj { font-size: 11px; text-anchor: middle; }
      .hdr { font-size: 14px; font-weight: 600; text-anchor: middle; }
      .cap { font-size: 11.5px; fill: #8a8a85; text-anchor: middle; }
    </style>
    <marker id="pd-arr" viewBox="0 0 10 10" refX="8" refY="5" markerWidth="7" markerHeight="7" orient="auto-start-reverse">
      <path d="M2 1L8 5L2 9" fill="none" stroke="context-stroke" stroke-width="1.5" stroke-linecap="round" stroke-linejoin="round"/>
    </marker>
  </defs>

  <text x="340" y="24" class="hdr">Two Tasks of the Projector</text>

  <!-- Encoder output: many narrow vectors -->
  <text x="92" y="54" class="lbl">Encoder Output</text>
  <g>
    <rect class="barL" x="40" y="70" width="9" height="56"/>
    <rect class="barL" x="55" y="70" width="9" height="56"/>
    <rect class="barL" x="70" y="70" width="9" height="56"/>
    <rect class="barL" x="85" y="70" width="9" height="56"/>
    <rect class="barL" x="100" y="70" width="9" height="56"/>
    <rect class="barL" x="115" y="70" width="9" height="56"/>
    <rect class="barL" x="130" y="70" width="9" height="56"/>
  </g>
  <text x="92" y="146" class="sub">Many patches · 1024 dims</text>

  <path d="M 150 98 L 211 98" fill="none" stroke="#171717" stroke-width="1.5" stroke-linecap="round" marker-end="url(#pd-arr)"/>

  <!-- Projector -->
  <rect class="acc" x="213" y="66" width="172" height="64" rx="8"/>
  <text x="299" y="84" class="lbl" dominant-baseline="central">Projector</text>
  <text x="299" y="103" class="pj" dominant-baseline="central">① dim 1024 → 4096</text>
  <text x="299" y="119" class="pj" dominant-baseline="central">② reduce token count</text>

  <path d="M 387 98 L 470 98" fill="none" stroke="#171717" stroke-width="1.5" stroke-linecap="round" marker-end="url(#pd-arr)"/>

  <!-- LLM input: fewer wide tokens -->
  <text x="516" y="54" class="lbl">LLM Input Tokens</text>
  <g>
    <rect class="barR" x="476" y="70" width="20" height="56"/>
    <rect class="barR" x="506" y="70" width="20" height="56"/>
    <rect class="barR" x="536" y="70" width="20" height="56"/>
  </g>
  <text x="516" y="146" class="sub">Fewer tokens · 4096 dims</text>

  <text x="340" y="184" class="cap">① Align vector dims to LLM, ② reduce token count, then insert between text tokens</text>
</svg>
