<svg width="100%" viewBox="0 0 680 250" xmlns="http://www.w3.org/2000/svg" role="img">
  <title>Video Generation — Frames and Time Denoised Together</title>
  <desc>Multiple frames are denoised as a single block along not just spatial axes but also the time axis. As noise is stripped away, frames cross-reference each other so motion flows smoothly without cuts.</desc>

  <defs>
    <style>
      text { font-family: -apple-system, system-ui, sans-serif; fill: #171717; }
      .frame { fill: #fafaf9; stroke: #171717; stroke-width: 1.5; }
      .lbl { font-size: 11px; text-anchor: middle; }
      .hdr { font-size: 14px; font-weight: 600; text-anchor: middle; }
      .note { font-size: 10px; fill: #8a8a85; text-anchor: middle; }
      .cap { font-size: 11.5px; fill: #8a8a85; text-anchor: middle; }
      .dot { fill: #8a8a85; }
      .link { stroke: #f26522; stroke-width: 1.3; }
    </style>
    <marker id="vg-arr" viewBox="0 0 10 10" refX="8" refY="5" markerWidth="7" markerHeight="7" orient="auto-start-reverse">
      <path d="M2 1L8 5L2 9" fill="none" stroke="context-stroke" stroke-width="1.5" stroke-linecap="round" stroke-linejoin="round"/>
    </marker>
  </defs>

  <text x="340" y="26" class="hdr">Video — Frames and Time Together</text>

  <!-- Noisy frames -->
  <g class="frame"><rect x="28" y="72" width="46" height="58" rx="4"/></g>
  <g class="frame"><rect x="80" y="72" width="46" height="58" rx="4"/></g>
  <g class="frame"><rect x="132" y="72" width="46" height="58" rx="4"/></g>
  <g class="dot">
    <circle cx="40" cy="86" r="1.7"/><circle cx="60" cy="92" r="1.7"/><circle cx="48" cy="108" r="1.7"/><circle cx="66" cy="118" r="1.7"/><circle cx="38" cy="120" r="1.7"/>
    <circle cx="92" cy="84" r="1.7"/><circle cx="112" cy="96" r="1.7"/><circle cx="98" cy="112" r="1.7"/><circle cx="116" cy="120" r="1.7"/><circle cx="88" cy="104" r="1.7"/>
    <circle cx="144" cy="90" r="1.7"/><circle cx="164" cy="84" r="1.7"/><circle cx="150" cy="110" r="1.7"/><circle cx="168" cy="118" r="1.7"/><circle cx="140" cy="122" r="1.7"/>
  </g>
  <text x="103" y="148" class="lbl">Noise frames</text>

  <!-- Diffusion arrow -->
  <path d="M 188 101 L 300 101" fill="none" stroke="#171717" stroke-width="1.5" stroke-linecap="round" marker-end="url(#vg-arr)"/>
  <text x="244" y="90" class="note">diffuse along time axis too</text>

  <!-- Finished frames (ball moves) -->
  <g class="frame"><rect x="312" y="72" width="46" height="58" rx="4"/></g>
  <g class="frame"><rect x="364" y="72" width="46" height="58" rx="4"/></g>
  <g class="frame"><rect x="416" y="72" width="46" height="58" rx="4"/></g>
  <circle cx="326" cy="112" r="7" fill="#171717"/>
  <circle cx="387" cy="100" r="7" fill="#171717"/>
  <circle cx="450" cy="88" r="7" fill="#171717"/>

  <!-- Inter-frame references -->
  <path d="M 335 140 L 376 140" class="link" fill="none" marker-start="url(#vg-arr)" marker-end="url(#vg-arr)"/>
  <path d="M 398 140 L 439 140" class="link" fill="none" marker-start="url(#vg-arr)" marker-end="url(#vg-arr)"/>
  <text x="387" y="160" class="note" fill="#f26522">frames cross-reference</text>

  <text x="387" y="184" class="lbl">Finished video — frames flow smoothly</text>

  <text x="340" y="232" class="cap">All frames denoised together while cross-referencing — motion flows smoothly without cuts</text>
</svg>
